fd_7_states
version=1
nRows=35
nColumns=17
inDegrees=yes

# SIMM Motion File Header:
name fd_7_states
datacolumns 17
datarows 35
otherdata 1
range 0.707965 0.726362
endheader
time	/jointset/r_shoulder/r_shoulder_elev/value	/jointset/r_shoulder/r_shoulder_elev/speed	/jointset/r_elbow/r_elbow_flex/value	/jointset/r_elbow/r_elbow_flex/speed	/forceset/TRIlong/activation	/forceset/TRIlong/fiber_length	/forceset/TRIlat/activation	/forceset/TRIlat/fiber_length	/forceset/TRImed/activation	/forceset/TRImed/fiber_length	/forceset/BIClong/activation	/forceset/BIClong/fiber_length	/forceset/BICshort/activation	/forceset/BICshort/fiber_length	/forceset/BRA/activation	/forceset/BRA/fiber_length
      0.707965	     -6.480052	      6.563685	     85.731109	   -300.918822	      0.044374	      0.164292	      0.413062	      0.101643	      0.405620	      0.096704	      0.148662	      0.102422	      0.041343	      0.101289	      0.034523	      0.070027
      0.708461	     -6.476767	      6.681170	     85.581876	   -300.783884	      0.044203	      0.164245	      0.413252	      0.101592	      0.405755	      0.096653	      0.148289	      0.102549	      0.041194	      0.101416	      0.034424	      0.070092
      0.708957	     -6.473423	      6.803541	     85.432705	   -300.669679	      0.044034	      0.164198	      0.413433	      0.101541	      0.405885	      0.096602	      0.147921	      0.102676	      0.041047	      0.101543	      0.034326	      0.070145
      0.709453	     -6.470017	      6.927085	     85.283589	   -300.562226	      0.043866	      0.164152	      0.413607	      0.101489	      0.406009	      0.096551	      0.147555	      0.102804	      0.040901	      0.101670	      0.034228	      0.070205
      0.709893	     -6.466943	      7.039690	     85.151295	   -300.479832	      0.043717	      0.164110	      0.413754	      0.101444	      0.406114	      0.096505	      0.147234	      0.102916	      0.040773	      0.101783	      0.034142	      0.070255
      0.710079	     -6.465635	      7.087580	     85.095657	   -300.447648	      0.043655	      0.164093	      0.413714	      0.101425	      0.406057	      0.096486	      0.147100	      0.102964	      0.040719	      0.101830	      0.034110	      0.070277
      0.710264	     -6.464318	      7.135876	     85.040025	   -300.417278	      0.043594	      0.164076	      0.413108	      0.101406	      0.405430	      0.096467	      0.146968	      0.103011	      0.040665	      0.101877	      0.034096	      0.070298
      0.710506	     -6.462584	      7.199499	     84.967315	   -300.379864	      0.043513	      0.164053	      0.412304	      0.101381	      0.404599	      0.096443	      0.146795	      0.103073	      0.040595	      0.101939	      0.034078	      0.070326
      0.711716	     -6.453675	      7.522522	     84.603888	   -300.218290	      0.043115	      0.163940	      0.408376	      0.101258	      0.400537	      0.096320	      0.145946	      0.103382	      0.040248	      0.102248	      0.033990	      0.070470
      0.712154	     -6.450354	      7.641876	     84.472404	   -300.171854	      0.042972	      0.163899	      0.406992	      0.101215	      0.399105	      0.096277	      0.145643	      0.103493	      0.040125	      0.102359	      0.033958	      0.070516
      0.712746	     -6.445783	      7.802113	     84.294740	   -300.107457	      0.042781	      0.163844	      0.405152	      0.101156	      0.397202	      0.096218	      0.145238	      0.103644	      0.039959	      0.102510	      0.033916	      0.070585
      0.713424	     -6.440431	      7.986356	     84.091295	   -300.039598	      0.042564	      0.163781	      0.403086	      0.101089	      0.395065	      0.096151	      0.144780	      0.103816	      0.039770	      0.102682	      0.033868	      0.070661
      0.713964	     -6.436081	      8.131130	     83.929361	   -299.981014	      0.042393	      0.163731	      0.401473	      0.101035	      0.393397	      0.096098	      0.144420	      0.103953	      0.039621	      0.102819	      0.033830	      0.070729
      0.714503	     -6.431653	      8.277593	     83.767458	   -299.930911	      0.042224	      0.163681	      0.399887	      0.100982	      0.391756	      0.096045	      0.144063	      0.104089	      0.039474	      0.102955	      0.033793	      0.070785
      0.715043	     -6.427146	      8.421118	     83.605583	   -299.872149	      0.042055	      0.163631	      0.398328	      0.100930	      0.390144	      0.095993	      0.143710	      0.104226	      0.039327	      0.103092	      0.033755	      0.070850
      0.715583	     -6.422562	      8.564918	     83.443740	   -299.816482	      0.041889	      0.163581	      0.396796	      0.100877	      0.388558	      0.095940	      0.143361	      0.104362	      0.039182	      0.103228	      0.033718	      0.070909
      0.716123	     -6.417901	      8.706072	     83.281928	   -299.753195	      0.041723	      0.163531	      0.395288	      0.100824	      0.386998	      0.095888	      0.143015	      0.104498	      0.039038	      0.103365	      0.033681	      0.070973
      0.716774	     -6.412179	      8.876358	     83.086834	   -299.679881	      0.041525	      0.163471	      0.393504	      0.100761	      0.385152	      0.095824	      0.142603	      0.104662	      0.038866	      0.103529	      0.033638	      0.071043
      0.717292	     -6.407545	      9.008435	     82.931574	   -299.610998	      0.041369	      0.163423	      0.392109	      0.100710	      0.383708	      0.095774	      0.142279	      0.104793	      0.038730	      0.103659	      0.033603	      0.071108
      0.717810	     -6.402843	      9.141256	     82.776350	   -299.546773	      0.041214	      0.163376	      0.390737	      0.100660	      0.382288	      0.095724	      0.141958	      0.104923	      0.038595	      0.103790	      0.033568	      0.071162
      0.718328	     -6.398073	      9.271022	     82.621161	   -299.473326	      0.041060	      0.163328	      0.389386	      0.100610	      0.380890	      0.095674	      0.141640	      0.105053	      0.038461	      0.103920	      0.033534	      0.071223
      0.719016	     -6.391641	      9.442435	     82.415321	   -299.376121	      0.040858	      0.163265	      0.387626	      0.100543	      0.379068	      0.095607	      0.141223	      0.105225	      0.038285	      0.104093	      0.033489	      0.071298
      0.719538	     -6.386679	      9.569266	     82.259073	   -299.292493	      0.040706	      0.163217	      0.386314	      0.100492	      0.377711	      0.095557	      0.140909	      0.105356	      0.038153	      0.104223	      0.033455	      0.071362
      0.720060	     -6.381650	      9.696673	     82.102868	   -299.212940	      0.040555	      0.163169	      0.385024	      0.100442	      0.376376	      0.095506	      0.140598	      0.105487	      0.038021	      0.104354	      0.033421	      0.071417
      0.720581	     -6.376556	      9.821130	     81.946707	   -299.124688	      0.040405	      0.163122	      0.383776	      0.100391	      0.375105	      0.095455	      0.140232	      0.105617	      0.037891	      0.104485	      0.033373	      0.071477
      0.721273	     -6.369704	      9.986045	     81.739778	   -299.011261	      0.040208	      0.163058	      0.382180	      0.100324	      0.373508	      0.095388	      0.139678	      0.105791	      0.037719	      0.104658	      0.033290	      0.071552
      0.721794	     -6.364471	     10.107768	     81.584058	   -298.920282	      0.040061	      0.163011	      0.381001	      0.100273	      0.372329	      0.095338	      0.139264	      0.105922	      0.037591	      0.104787	      0.033228	      0.071617
      0.722315	     -6.359174	     10.230959	     81.428385	   -298.837429	      0.039915	      0.162963	      0.379840	      0.100223	      0.371167	      0.095287	      0.138855	      0.106053	      0.037464	      0.104917	      0.033166	      0.071671
      0.722836	     -6.353814	     10.352142	     81.272755	   -298.750103	      0.039771	      0.162916	      0.378697	      0.100172	      0.370024	      0.095237	      0.138449	      0.106183	      0.037338	      0.105047	      0.033105	      0.071731
      0.723541	     -6.346461	     10.516796	     81.062264	   -298.638852	      0.039577	      0.162852	      0.377179	      0.100104	      0.368504	      0.095169	      0.137907	      0.106360	      0.037169	      0.105222	      0.033023	      0.071807
      0.724068	     -6.340887	     10.637862	     80.904926	   -298.551522	      0.039433	      0.162804	      0.376064	      0.100053	      0.367389	      0.095118	      0.137506	      0.106492	      0.037044	      0.105353	      0.032962	      0.071872
      0.724595	     -6.335249	     10.760570	     80.747632	   -298.472848	      0.039290	      0.162757	      0.374967	      0.100002	      0.366290	      0.095066	      0.137110	      0.106623	      0.036920	      0.105483	      0.032901	      0.071926
      0.725121	     -6.329547	     10.881459	     80.590381	   -298.390322	      0.039149	      0.162709	      0.373886	      0.099951	      0.365208	      0.095015	      0.136717	      0.106754	      0.036797	      0.105614	      0.032841	      0.071987
      0.725829	     -6.321788	     11.044839	     80.379222	   -298.287243	      0.038961	      0.162645	      0.372460	      0.099882	      0.363780	      0.094947	      0.136196	      0.106931	      0.036632	      0.105789	      0.032761	      0.072063
      0.726362	     -6.315871	     11.165968	     80.220321	   -298.206109	      0.038820	      0.162597	      0.371407	      0.099830	      0.362725	      0.094895	      0.135809	      0.107063	      0.036510	      0.105920	      0.032702	      0.072128
